<svg width="200" height="200" viewBox="0 0 200 200" fill="none" xmlns="http://www.w3.org/2000/svg">
<path d="M100 0C126.522 0 151.957 10.5354 170.711 29.2891C189.465 48.0427 200 73.4784 200 100C200 126.522 189.465 151.957 170.711 170.711C151.957 189.465 126.522 200 100 200C73.4784 200 48.0427 189.465 29.2891 170.711C10.5354 151.957 0 126.522 0 100C0 73.4784 10.5354 48.0427 29.2891 29.2891C48.0427 10.5354 73.4784 0 100 0ZM141.9 75.5996C141.7 76.5995 141.6 77.4998 141.4 78.5996H134.6V87.7002C136.9 87.8002 139.2 87.9 141.4 88V95.4004H131V104.6H141.7V124.4H152.4V104.6C157.3 104.6 161.9 104.5 166.5 104.6C168.7 104.6 169.999 105.7 170.1 107.6C170.2 110.499 170.1 113.4 170.1 116.6H159.7C160 121.7 163.4 124.4 169.7 124.5C176.3 124.6 180.5 121.8 180.8 116.7C181 112.4 181 108.2 180.8 103.9C180.5 99.0005 176.9 95.9004 171.2 95.4004C170.401 95.3005 169.502 95.2998 169.4 95.2998C168.3 90.8998 168.1 86.3998 166 82.7998C163.5 78.5 157.7 78.4004 152.6 78.4004C152.4 77.3004 152.3 76.4996 152.1 75.5996H141.9ZM78.0996 114.8C77.5996 114.8 76.7997 115.2 76.5996 115.6C74.8996 118.2 73.4002 120.9 71.2002 124.5H87.0996C87.5996 124.5 88.2996 124 88.5996 123.6C90.1996 120.9 91.8 118.3 93.5 115.3C90.6 115.3 88.0996 115.4 85.5996 115.3C83.0997 115.2 80.5995 114.9 78.0996 114.8ZM40.2002 75.5996C40.2002 75.5996 40.1996 116.8 40.0996 116.8H36.5996C35.4998 116.8 34.4 116.9 33.2002 116.9C34.2002 122 36.5001 124.1 41 124.4C47.2 124.8 51 121.8 51 116V76.9004C51 76.5004 50.8998 75.9996 50.7998 75.5996H40.2002ZM102.8 78.7002V87.7998H109.3V115.2H98.9004C97.1004 118.3 95.3996 121.2 93.5996 124.3H130.8V115.3H120.6V87.7002H127.1V78.7002H102.8ZM22.2998 87.9004C21.1998 95.4002 20.1996 102.6 19.0996 109.8C19.0996 110.2 19.0998 110.6 19.2998 110.9C21.0998 114 22.9 117 25 120.4C33.5999 110.201 31.1 98.8003 33.2998 87.9004H22.2998ZM57.9004 87.9004C59.8003 98.9002 57.6003 110.3 65.7002 120.3C68.7002 115.1 72.9001 110.8 70.2002 105C70.1002 104.7 70.2002 104.4 70.2002 104.1L68.7002 87.9004H57.9004ZM95 75.5C91.7001 75.5 89.0001 75.4 86.2002 75.5C85.5002 75.5 84.3996 75.7998 84.0996 76.2998C81.0996 81.6998 78.1002 87.0004 75.2002 92.4004C74.1004 94.5003 75.2005 96.1996 77.9004 96.5996C79.9003 96.9996 82.0001 97.0002 84.5 97.2002C82.5 100.7 80.6004 103.9 78.9004 107.2C77.5004 110.1 78.7 111.9 82.2998 112.2C85.5998 112.5 88.9002 112.3 92.2002 112.3C92.7002 112.3 93.5998 112 93.7998 111.6C95.1998 109.4 96.4998 107.2 97.7998 104.8C95.4999 104.6 93.6995 104.6 91.0996 104.4C94.3996 98.7004 97.4002 93.3996 100.7 87.5996C96.1004 88.2996 92.0003 86.6001 88.4004 89.0996L87.7002 88.5996C90.1001 84.2997 92.5001 79.9999 95 75.5ZM152.4 88.0996C157.9 87.1997 158.3 87.6004 157.5 95.2002H152.4V88.0996ZM175.7 78.5C173 78.3 170.5 80.0004 170.2 82.4004C170 84.1001 170.2 85.7999 170.2 87.5996C172.3 87.5996 174.3 87.6996 176.2 87.5996C179 87.3995 180.9 85.0997 180.7 82.7998C180.4 80.4999 178.3 78.7001 175.7 78.5Z" fill="white"/>
</svg>
